# xmcd
#
# Track frame offsets:
# 150
# 21746
# 36936
# 58552
# 74978
# 90740
# 112810
# 137507
# 157829
# 173115
# 190025
# 210537
#
# Disc length: 3067 seconds
#
#
# Revision: 0
# Processed by: cddbd v1.5.2PL0 Copyright (c) Steve Scherf et al.
# Submitted via: FreeRIP 2.945 
#
DISCID=a50bf90c
DTITLE=Eldritch - Blackenday
DYEAR=2007
DGENRE=Metal
TTITLE0=Silent Flame
TTITLE1=The Deep Sleep
TTITLE2=The Blackend Day
TTITLE3=Why
TTITLE4=Black Rain
TTITLE5=Broken Road
TTITLE6=Rumors
TTITLE7=Frozen
TTITLE8=The Child That Never Smiles
TTITLE9=The Fire
TTITLE10=Shallow Water Flood
TTITLE11=Never Dawn
EXTD=
EXTT0=
EXTT1=
EXTT2=
EXTT3=
EXTT4=
EXTT5=
EXTT6=
EXTT7=
EXTT8=
EXTT9=
EXTT10=
EXTT11=
PLAYORDER=
